<?xml version="1.0" encoding="UTF-8"?>
<svg id="Layer_1" data-name="Layer 1" xmlns="http://www.w3.org/2000/svg" viewBox="0 0 1080 1080">
  <defs>
    <style>
      .cls-1 {
        fill: #fff;
      }
    </style>
  </defs>
  <path class="cls-1" d="M515.38,127.28c109.15-4.72,210.29,28.94,294.54,97.72,199.33,162.72,210.49,468.87,7.4,634-149.55,121.6-387.35,126.03-541.04,9.62-135.87-102.92-191.96-274.1-144.03-438.66,47.74-163.9,211.88-295.29,383.12-302.68ZM531.09,143c-183.37,5.26-354.07,142.93-390.5,323.96-19.39,96.37-2.99,200.96,49.81,284.22,101.71,160.38,301.79,219.94,480.84,166.03,204.62-61.61,318.8-268.34,261.99-475.38-47.73-173.94-221.2-304.02-402.15-298.82Z"/>
  <path class="cls-1" d="M531.1,409.13c1.39.9,5.26,7.78,6.65,9.49,8.73,10.73,16.26,20.71,21.72,33.74,7.24,17.28,8.88,37.66,6.93,55.9-1.94,18.14-8.65,33.97-7.42,52.73,2.25,34.46,36.94,52.63,42.56,85.46,1.93-.99,3.63-3.18,4.66-5.04,10.23-18.38,9.66-42.98,3.36-62.6-3.44-10.72-10.44-21.74-16.34-31.25,1.42-1.13,8.32,5.2,9.73,6.44,19.1,16.8,33.34,39.57,36.48,65.19,4.06,33.16-5.6,64.64-22.17,92.87,5.53.45,11.08-.67,16.2-2.74,23.01-9.28,30.75-35.5,29.73-58.45-.06-1.43-1.44-2.11.74-3.48,1.1.82,1.77,1.9,2.49,3.04,19.97,31.23,19.67,81.03-1.65,111.47-20.63,29.45-45.57,37.89-78.22,47.48-.9.26-4.98,3.69-3.51-.72.19-.57,8.35-5.76,9.71-6.95,14.83-13.06,23-33.78,17.26-53.26-.44-1.5-1.54-5.06-2.9-5.86-.33,4.84-2.52,9.07-4.81,13.21-1.1,2-4.5,7.33-5.85,8.94-1.22,1.47-1.21.61-2.27-.44,2.28-3.15,3.59-8.37,4.36-12.26,8.46-42.45-20.33-90.67-48.27-121.31-2.48-2.72-19.83-20.6-21.28-21.24-1.16-.51-1.61.1-1.32,1.32.65,2.75,2.76,5.8,3.58,8.45,6.88,22.34,6.65,40.34-2.54,62.02-7.91,18.66-22.61,33.55-25,54.49-.17,1.53.79,15.01-2.88,12.36-.25-3.48-2.77-6.71-3.65-9.76-3.54-12.19-3.43-28.85-1.79-41.42.57-4.4,1.84-8.55,3.58-12.58-1.05-1.06-6.44,5-7.36,6.03-25.77,28.43-39.06,70.71-12.97,103.49,4.79,6.01,11.58,9.63,16.64,15.24-10.67-1.06-22.69-5.87-32.52-10.45-24.15-11.25-48.88-33.84-58.08-59.3-10-27.67-5.62-59.52,6.97-85.51,2.08-.39,1.28.91,1.38,2.29.84,12.34,1.46,22.82,9.69,32.84,6.8,8.28,21.43,18.65,32.57,14.99,11.12-3.65,6.06-16.59,2.82-24.5-4.99-12.16-13.15-23.99-16.57-37.04-10.51-40.08,6.61-79.94,33.89-108.73l2.27,1.37c.07.76-3.22,8.55-3.57,10.28-3.61,17.55-1.72,38.68,4.5,55.37,5.81,15.57,17.3,34.73,35.47,36.4l1.38-1.42c3.12-9.4-10.4-34.36-13.75-44.21-6.99-20.54-7.49-36.22.78-56.57,7.33-18.03,22.31-31.72,29.55-49.93,6.57-16.54,7.87-39.55,3.6-56.82-1.36-5.51-5.94-13.15-7.02-17.95-.43-1.9,1.51-1.72,2.5-1.07Z"/>
  <path class="cls-1" d="M831.21,772.15c-.25-.04-2.43-1.12-2.31-1.38,22.27-25.69,41.99-56.88,54.71-88.55,63.24-157.47,1.57-336.19-135.76-430.25-142.57-97.66-312.04-88.35-443.95,22.46s-175.72,315.14-75.23,468.08l19.79,26.88c-5.95.36-13.53,3.33-18.04-1.82-22.94-26.2-46.49-74.52-56.76-107.76-56.45-182.64,39.33-369.98,206.35-452.53,198.44-98.09,436,8.79,516.39,208.56,46.91,116.55,30.24,259.4-51.33,356.33-4.34-.45-9.69.62-13.86,0Z"/>
  <path class="cls-1" d="M562.01,220.59c2.54-2.97,16.81-2.31,12.92,7.83-21.97,32.36-41.44,66.37-62.29,99.46-80.08,127.05-165.06,254.08-267.37,363.9-3.9,4.18-13.5,14.77-17.57,17.57-.97.67-1.02,1.19-2.36.47s-8.68-15.28-9.88-17.89c-3.26-7.06-20.98-53.32-19.24-57.48,5.45-5.33,12.65-9.23,18.52-13.88,113.95-90.21,217-200.32,297.91-321.35,2.42-3.61,17.3-25.94,17.57-27.79.79-5.41-21.29-35.38-25.02-42.07-3.89-9.59,5.51-11.78,12.77-9.08l22.11,35.18c1.3-.01,12.96-18.59,14.69-21.34,2.01-3.19,3.89-6.51,5.96-9.77.74-1.17.77-3.15,1.29-3.77Z"/>
  <path class="cls-1" d="M884.26,633.59c-5.57,26.56-15.85,52.87-29.04,76.63-9.14-7.78-17.97-16.66-26.35-25.39-20.88-21.75-40.08-45.22-59.12-68.42-82.45-100.46-153.43-209.55-221.36-320.3-1.31-2.48,5.27-14.16,6.9-15.23,1.18-.78,1.6-.58,2.29.53l26.93,41.47,55.87,75.38,36.47,43.94,39.25,43.01c50.72,51.93,105.53,104.87,165.05,147.39.95.68,2.02.84,3.13.99Z"/>
  <path class="cls-1" d="M529.43,326.66c-6.03,12.27-10.78,25.17-16.47,37.59-3.5,7.63-7.8,15.14-11.42,22.78-61.32,129.63-131.47,254.91-203.64,378.64l-1.83.94-31.24.97c-2.58-4.04-17.57-17.56-15.7-21.96,5.38-7.18,12.1-13.29,17.82-20.15,98.88-118.52,170.14-248.77,249.18-380.24,2.8-4.66,7.19-12.56,10.33-16.47.87-1.09,1.04-2.54,2.97-2.1Z"/>
  <path class="cls-1" d="M563.17,347c14.55,22.17,26.86,45.84,40.37,68.68,64.07,108.31,131.14,215.53,211.49,312.57,5.39,6.51,11.26,12.84,17.14,18.93.7,1.54-6.86,9.37-8.3,11.17-.94,1.17-1.31,2.84-2.37,4.1-4.76,5.65-6.72,8.18-14.37,7.89-8.21-.31-16.27-2.25-24.06-3.66-58.06-95.26-112.16-192.76-162.3-292.43-16.11-32.03-32.64-65.22-47.13-97.98-3.66-8.26-8.26-17.65-10.77-26.22-.42-1.43-1.92-1.48.3-3.04Z"/>
  <path class="cls-1" d="M635.67,896.99l.06,2.7c-14.1.92-27.53,6.6-41.87,5.36-59.71-47.03-129.7-81.39-204.55-95.84-29.19-5.63-63.53-9.26-93.21-10.3-8.77-.31-22.74,1.44-30.54.04-2.29-.41-2.56-1.48-2.31-3.69,8.07-1.49,16.32-1.82,24.45-2.83,121.6-15.13,230.8,39.18,333.34,97.46,4.39,2.5,9.92,5.27,14.64,7.09Z"/>
  <path class="cls-1" d="M810.42,797.1v2.77c-9.59.44-19.58-.58-29.13,0-41.57,2.52-83.43,7.85-123.79,18.55l-33.79,12.89c-.22,1.61,2.1.87,3.22.91,42.82,1.59,87.23,4.42,129.46,11.04,1.8.28,11.93.6,12.42.98.53,2.13-.4,1.52-1.16,2.11-1.7,1.33-19.48,11.36-20.66,11.49-.89.1-5.96-.52-7.24-.73-37.29-6.12-76.74-8.73-114.66-11.04-16.79-1.02-36.5,1.83-52.73.05-1.4-.15-2.29-.08-3.17-1.43,14.7-10.7,30.65-20.21,47.41-27.44,51.86-22.37,120.7-29.28,176.7-22.93,5.89.67,11.33,2.43,17.11,2.77Z"/>
  <path class="cls-1" d="M432.31,258.19c-1.9.22-3.7.72-5.46,1.47-59.89,25.62-114.52,74.57-147.73,130.47-11.21,18.88-19.82,39.09-27.95,59.43l-8.26-1.84c6.23-23.06,16.34-45.63,28.65-66.09,27.19-45.2,67.5-85.79,113.07-112.45,13.88-8.12,29.81-16.38,45-20.71l2.69,9.71Z"/>
  <path class="cls-1" d="M835.37,447.73l-8.23,1.78c-10.84-28.27-24.26-55.97-41.71-80.77-34.34-48.8-82.59-87.86-137.73-110.94l-.74-1.67,3.99-7.75c8.66,2.67,17.04,6.56,25.14,10.64,62.46,31.45,117.45,90.48,146.5,153.89,1.86,4.06,14.15,33.31,12.78,34.82Z"/>
  <path class="cls-1" d="M493.38,900.61c-12.1-.56-21.26-11.39-30.58-17.94-25.86-18.16-50.34-32.17-81.1-40.9-23.6-6.71-48.39-8.56-72.07-13.89-7.47-1.68-14.9-1.88-20.49-8.14.88-1.34,1.77-1.28,3.17-1.43,10.65-1.17,31.21,1.48,42.56,2.82,56.01,6.65,116.24,28.82,153.92,72.52.7.81,5.37,6.29,4.59,6.95Z"/>
  <path class="cls-1" d="M545.14,811.88c-1.82.47-1.79-.75-2.6-1.55-22.01-21.72-19.6-43.2-3.28-67.64,14.36-21.5,22.67-26.91,20.66-56.03-.09-1.27-2.88-8.93-.45-8.77,1.72.11,9.23,19.26,10,22.33,1.91,7.6,2.21,18.31,1.54,26.16-2.36,27.56-30.79,46.86-27.66,74.83.33,2.96,3.15,6.65,1.79,10.68Z"/>
</svg>